# xmcd CD database file
#
# Track frame offsets:
#	150
#	13750
#	30412
#	44244
#	61018
#	79995
#	97088
#	112296
#	129367
#	146149
#	159182
#	173266
#	185878
#	201143
#	217557
#	233066
#	248432
#	276408
#
# Disc length: 4560 seconds
#
# Revision: 3
# Processed by: cddbd v1.5.2PL0 Copyright (c) Steve Scherf et al.
# Submitted via: CDex 1.51
#
DISCID=f711ce12
DTITLE=Aloha From Hell - No More Days To Waste
DYEAR=2009
DGENRE=Rock
TTITLE0=No More Days To Waste
TTITLE1=Can You Hear Me Boys
TTITLE2=Don't Gimme That
TTITLE3=Fear Of Tomorrow
TTITLE4=Walk Away
TTITLE5=Don't Hurt Yourself
TTITLE6=Wake Me Up
TTITLE7=Hello, Hello
TTITLE8=How Come You Are The One
TTITLE9=Girls Just Wanna Have Fun
TTITLE10=You
TTITLE11=Catch Me If You Can
TTITLE12=Don't Gimme That (Alternative Rock Version)
TTITLE13=So What's Going On
TTITLE14=I'll Smash Your Mind
TTITLE15=My Love You Are (Unplugged)
TTITLE16=Can You Hear Me Boys (Unplugged)
TTITLE17=PV
EXTD=YEAR: 2009
EXTT0=
EXTT1=
EXTT2=
EXTT3=
EXTT4=
EXTT5=
EXTT6=
EXTT7=
EXTT8=
EXTT9=
EXTT10=
EXTT11=
EXTT12=
EXTT13=
EXTT14=
EXTT15=
EXTT16=
EXTT17=
PLAYORDER=
